<?xml version="1.0" encoding="UTF-8" standalone="no"?>
<svg
   xmlns:dc="http://purl.org/dc/elements/1.1/"
   xmlns:cc="http://creativecommons.org/ns#"
   xmlns:rdf="http://www.w3.org/1999/02/22-rdf-syntax-ns#"
   xmlns:svg="http://www.w3.org/2000/svg"
   xmlns="http://www.w3.org/2000/svg"
   width="10mm"
   height="10mm"
   viewBox="0 0 37.795277 37.795277"
   version="1.1"
   id="svg961">
  <defs
     id="defs955" />
  <metadata
     id="metadata958">
    <rdf:RDF>
      <cc:Work
         rdf:about="">
        <dc:format>image/svg+xml</dc:format>
        <dc:type
           rdf:resource="http://purl.org/dc/dcmitype/StillImage" />
        <dc:title></dc:title>
      </cc:Work>
    </rdf:RDF>
  </metadata>
  <g
     id="layer1"
     transform="translate(-154.65441,-100.71766)">
    <path
       fill="none"
       stroke="#52AEA3"
       stroke-width="0.3008"
       d="m 183.1013,104.64708 c 4.12606,0 3.48734,2.00885 1.42288,2.72029 -0.98233,0.33648 -3.12663,1.53979 -2.5435,3.28774 0.15683,0.47191 1.09495,1.33449 1.93614,2.07159 0.52894,0.46336 0.59452,0 0.59452,0 0,-1.73512 1.40578,-3.14089 3.14089,-3.14089 1.73511,0 3.13947,1.40577 3.13947,3.14089 0,1.73369 -1.40436,3.14088 -3.13947,3.14088 0,0 -0.34502,0 0.10837,0.61164 1.26033,1.69948 2.33391,3.71973 2.33391,6.27607 -0.003,9.47255 -6.80216,12.30977 -16.27472,12.30977 -9.47256,0 -16.27187,-2.83722 -16.27472,-12.30977 0,-2.55634 1.07358,-4.57659 2.33391,-6.27607 0.45339,-0.61164 0.10837,-0.61164 0.10837,-0.61164 -1.73511,0 -3.13947,-1.40577 -3.13947,-3.14088 0,-1.73512 1.40436,-3.14089 3.13947,-3.14089 1.73511,0 3.14089,1.40577 3.14089,3.14089 0,0 0.0669,0.46336 0.59452,0 0.84261,-0.7371 1.77931,-1.6011 1.93614,-2.07159 0.58313,-1.74795 -1.56117,-2.95126 -2.5435,-3.28774 -2.06446,-0.71144 -2.70318,-2.72029 1.42288,-2.72029 z"
       id="path33"
       style="stroke:#52aea3;stroke-width:1.05618;stroke-miterlimit:4;stroke-dasharray:none;stroke-opacity:1" />
  </g>
</svg>
