<?xml version="1.0" encoding="UTF-8" standalone="no"?>
<svg
   xmlns:dc="http://purl.org/dc/elements/1.1/"
   xmlns:cc="http://creativecommons.org/ns#"
   xmlns:rdf="http://www.w3.org/1999/02/22-rdf-syntax-ns#"
   xmlns:svg="http://www.w3.org/2000/svg"
   xmlns="http://www.w3.org/2000/svg"
   width="10mm"
   height="10mm"
   viewBox="0 0 37.795277 37.795277"
   version="1.1"
   id="svg961">
  <defs
     id="defs955" />
  <metadata
     id="metadata958">
    <rdf:RDF>
      <cc:Work
         rdf:about="">
        <dc:format>image/svg+xml</dc:format>
        <dc:type
           rdf:resource="http://purl.org/dc/dcmitype/StillImage" />
        <dc:title></dc:title>
      </cc:Work>
    </rdf:RDF>
  </metadata>
  <g
     id="layer1"
     transform="translate(-154.65441,-100.71766)">
    <path
       fill="none"
       stroke="#52AEA3"
       stroke-width="0.427449"
       d="m 175.12671,104.75602 c 5.31113,-0.13652 4.88431,2.28637 2.8526,2.65628 -3.36764,0.61318 -0.81093,1.90647 -0.81093,1.90647 0,0 7.32712,0.54488 10.59521,1.36299 1.98756,0.49797 2.61642,2.87398 2.80283,4.65954 0.11938,1.14956 -1.73575,1.91075 -1.73575,1.91075 0,0 1.75278,1.25204 1.6518,2.26645 -0.35609,3.56971 -2.26788,13.54458 -5.02377,14.18198 -3.53832,0.81662 -11.88564,0.81662 -11.88564,0.81662 0,0 -8.34727,0 -11.88566,-0.81662 -2.75734,-0.6374 -4.66806,-10.61227 -5.02379,-14.18198 -0.10099,-1.01441 1.65183,-2.26645 1.65183,-2.26645 0,0 -1.85524,-0.76119 -1.73576,-1.91075 0.18644,-1.78556 0.81381,-4.16299 2.80282,-4.65954 3.2681,-0.81662 10.59523,-1.36299 10.59523,-1.36299 0,0 2.5567,-1.29329 -0.81094,-1.90647 -2.03167,-0.36821 -2.45994,-2.79288 2.8526,-2.65628 z"
       id="path35"
       style="stroke:#52aea3;stroke-width:1.0012;stroke-miterlimit:4;stroke-dasharray:none;stroke-opacity:1" />
  </g>
</svg>
